<svg width="40" height="40" viewBox="0 0 40 40" fill="none" xmlns="http://www.w3.org/2000/svg">
<rect x="2" y="8.85742" width="36" height="22.2857" rx="2" fill="#5A50F9"/>
<path d="M23.7326 13.9326H13.5713V17.9777H14.3395V14.7008H23.7326C24.5238 14.7008 25.245 15.3488 25.245 16.0604V22.3909H21.5268V22.3903C19.094 22.3903 17.1142 20.411 17.1142 17.9777H16.346C16.346 20.8341 18.6698 23.158 21.5263 23.1585V23.1591H26.0126V16.0609C26.0126 14.9273 24.9474 13.9326 23.7326 13.9326Z" fill="white"/>
<path d="M21.5267 19.6208C20.6207 19.6208 19.8834 18.8836 19.8834 17.9775H19.1152C19.1152 19.3072 20.197 20.389 21.5267 20.389V19.6208Z" fill="white"/>
<path d="M14.3395 17.9775H13.5713C13.5713 22.364 17.1398 25.9325 21.5263 25.9325V25.1643C17.5635 25.1638 14.3395 21.9404 14.3395 17.9775Z" fill="white"/>
</svg>
